<?xml version="1.0" encoding="utf-8"?>
<svg viewBox="0 0 32 32" fill="none" stroke-width="1.5" stroke="white" xmlns="http://www.w3.org/2000/svg">
  <path d="M 4.884 11.71 C 4.545 14.31 4.342 16.926 4.2780000000000005 19.547 C 7.833 21.032 11.237 22.856 14.442 24.993 C 17.648 22.856 21.052 21.032 24.608 19.547 C 24.543 16.926 24.341 14.31 24.001 11.71 M 4.883 11.71 C 8.179 12.818 11.376 14.198 14.442 15.837 C 17.508 14.198 20.705 12.818 24 11.71 M 4.883 11.71 C 3.799 11.345 2.7039999999999997 11.01 1.601 10.706 C 5.631 7.88 9.933 5.464 14.442 3.493 C 18.952 5.464 23.254 7.8790000000000004 27.283 10.705 C 26.177 11.011 25.082 11.347 24.001 11.71" style=""/>
  <path d="M 5.79 23.868 C 7.181 22.48 7.962 20.594 7.959 18.629 L 7.959 16.776" style=""/>
  <path d="M 7.959 17.701999999999998 L 7.959 13.164 C 10.054 11.862 12.219 10.674 14.442 9.606" style=""/>
  <path d="M 7.959 17.701999999999998 C 8.672 17.701999999999998 9.118 16.931 8.761 16.313 C 8.596 16.027 8.29 15.85 7.959 15.85 C 7.246 15.85 6.801 16.622 7.157 17.239 C 7.323 17.526 7.628 17.701999999999998 7.959 17.701999999999998 Z" style=""/>
</svg>